<svg width="48" height="48" viewBox="0 0 48 48" fill="none" xmlns="http://www.w3.org/2000/svg">
<rect width="48" height="48" rx="24" fill="#F5FBFF"/>
<g clip-path="url(#clip0_46_743)">
<path d="M22.9697 14H20.9697C15.9697 14 13.9697 16 13.9697 21V27C13.9697 32 15.9697 34 20.9697 34H26.9697C31.9697 34 33.9697 32 33.9697 27V25" stroke="#2C7EF8" stroke-width="1.5" stroke-linecap="round" stroke-linejoin="round"/>
<path d="M33.8804 15.56C32.6504 18.63 29.5604 22.81 26.9804 24.88L25.4004 26.14C25.2004 26.29 25.0004 26.41 24.7704 26.5C24.7704 26.35 24.7604 26.2 24.7404 26.04C24.6504 25.37 24.3504 24.74 23.8104 24.21C23.2604 23.66 22.6004 23.35 21.9204 23.26C21.7604 23.25 21.6004 23.24 21.4404 23.25C21.5304 23 21.6604 22.77 21.8304 22.58L23.0904 21C25.1604 18.42 29.3504 15.31 32.4104 14.08C32.8804 13.9 33.3404 14.04 33.6304 14.33C33.9304 14.63 34.0704 15.09 33.8804 15.56Z" stroke="#2C7EF8" stroke-width="1.5" stroke-linecap="round" stroke-linejoin="round"/>
<path d="M24.7801 26.49C24.7801 27.37 24.4401 28.21 23.8101 28.85C23.3201 29.34 22.6601 29.68 21.8701 29.78L19.9001 29.99C18.8301 30.11 17.9101 29.2 18.0301 28.11L18.2401 26.14C18.4301 24.39 19.8901 23.27 21.4501 23.24C21.6101 23.23 21.7701 23.24 21.9301 23.25C22.6101 23.34 23.2701 23.65 23.8201 24.2C24.3601 24.74 24.6601 25.36 24.7501 26.03C24.7701 26.19 24.7801 26.35 24.7801 26.49Z" stroke="#2C7EF8" stroke-width="1.5" stroke-linecap="round" stroke-linejoin="round"/>
<path d="M27.8203 23.9799C27.8203 21.8899 26.1303 20.1899 24.0303 20.1899" stroke="#2C7EF8" stroke-width="1.5" stroke-linecap="round" stroke-linejoin="round"/>
</g>
<defs>
<clipPath id="clip0_46_743">
<rect width="24" height="24" fill="white" transform="translate(12 12)"/>
</clipPath>
</defs>
</svg>
