<svg width="192" height="24" viewBox="0 0 192 24" fill="none" xmlns="http://www.w3.org/2000/svg">
<path d="M97.9593 15C97.138 15 96.5173 14.7853 96.0973 14.356C95.6867 13.9267 95.4813 13.334 95.4813 12.578V10.492H96.6433V12.424C96.6433 13.3387 97.1053 13.796 98.0293 13.796H103.055C103.466 13.796 103.783 13.7167 104.007 13.558C104.231 13.3993 104.343 13.1847 104.343 12.914C104.343 12.7273 104.297 12.5453 104.203 12.368C104.119 12.1813 103.975 11.9853 103.769 11.78L100.493 8.518V7.51L105.589 5.48L105.939 6.6L101.851 8.21L104.623 10.996C105.519 11.892 106.177 12.5267 106.597 12.9C107.017 13.2733 107.344 13.516 107.577 13.628C107.82 13.74 108.095 13.796 108.403 13.796C108.497 13.796 108.543 14.0013 108.543 14.412C108.543 14.804 108.497 15 108.403 15C108.002 15 107.671 14.9627 107.409 14.888C107.148 14.804 106.863 14.65 106.555 14.426C106.257 14.1927 105.86 13.8287 105.365 13.334C105.319 13.8287 105.09 14.23 104.679 14.538C104.278 14.846 103.737 15 103.055 15H97.9593ZM111.776 13.796C112.112 13.796 112.383 13.7073 112.588 13.53C112.794 13.3433 112.896 13.0867 112.896 12.76V10.492H114.072V12.774C114.072 13.4647 113.862 14.0107 113.442 14.412C113.022 14.804 112.467 15 111.776 15H108.402C108.309 15 108.262 14.804 108.262 14.412C108.262 14.0013 108.309 13.796 108.402 13.796H111.776ZM112.238 16.764V17.87H108.542V16.764H112.238ZM118.327 14.594C118.327 15.3687 118.173 16.0453 117.865 16.624C117.557 17.2027 117.123 17.646 116.563 17.954C116.012 18.262 115.378 18.416 114.659 18.416H114.267L114.155 17.212H114.631C115.424 17.212 116.045 16.9787 116.493 16.512C116.941 16.0547 117.165 15.4153 117.165 14.594V10.492H118.327V14.594ZM123.243 13.796C123.29 13.796 123.323 13.838 123.341 13.922C123.369 13.9967 123.383 14.16 123.383 14.412C123.383 14.6547 123.369 14.8133 123.341 14.888C123.323 14.9627 123.29 15 123.243 15H122.879C122.17 15 121.629 14.79 121.255 14.37C120.891 13.9407 120.709 13.334 120.709 12.55V5.942H121.871V12.494C121.871 13.362 122.226 13.796 122.935 13.796H123.243ZM127.002 12.774C127.002 13.4647 126.792 14.0107 126.372 14.412C125.952 14.804 125.397 15 124.706 15H123.25C123.157 15 123.11 14.804 123.11 14.412C123.11 14.0013 123.157 13.796 123.25 13.796H124.706C125.042 13.796 125.313 13.7073 125.518 13.53C125.733 13.3433 125.84 13.0867 125.84 12.76V10.492H127.002V12.774ZM127.436 7.706V8.812H123.74V7.706H127.436ZM139.993 13.796C140.357 13.796 140.646 13.7073 140.861 13.53C141.076 13.3433 141.183 13.0913 141.183 12.774V10.492H142.345V12.732C142.345 13.0773 142.438 13.3433 142.625 13.53C142.821 13.7073 143.106 13.796 143.479 13.796H143.857C143.95 13.796 143.997 14.0013 143.997 14.412C143.997 14.804 143.95 15 143.857 15H143.437C142.578 15 142.018 14.7247 141.757 14.174C141.43 14.7247 140.842 15 139.993 15H135.051C134.23 15 133.609 14.7853 133.189 14.356C132.778 13.9267 132.573 13.334 132.573 12.578V10.492H133.735V12.424C133.735 13.3387 134.197 13.796 135.121 13.796H139.993ZM139.293 8.21V9.316H135.597V8.21H139.293ZM144.288 13.796C144.624 13.796 144.894 13.7027 145.1 13.516C145.305 13.3293 145.408 13.0773 145.408 12.76V5.942H146.584V12.774C146.584 13.4647 146.374 14.0107 145.954 14.412C145.534 14.804 144.978 15 144.288 15H143.854C143.76 15 143.714 14.804 143.714 14.412C143.714 14.0013 143.76 13.796 143.854 13.796H144.288ZM151.64 13.796C151.686 13.796 151.719 13.838 151.738 13.922C151.766 13.9967 151.78 14.16 151.78 14.412C151.78 14.6547 151.766 14.8133 151.738 14.888C151.719 14.9627 151.686 15 151.64 15H151.276C150.566 15 150.025 14.79 149.652 14.37C149.288 13.9407 149.106 13.334 149.106 12.55V5.942H150.268V12.494C150.268 13.362 150.622 13.796 151.332 13.796H151.64ZM152.626 13.796C153.326 13.796 153.91 13.74 154.376 13.628C154.843 13.516 155.324 13.32 155.818 13.04L157.946 11.794C157.797 11.29 157.592 10.94 157.33 10.744C157.078 10.548 156.696 10.45 156.182 10.45H152.906L153.06 9.232H156.378C156.938 9.232 157.4 9.32533 157.764 9.512C158.128 9.69867 158.432 10.0067 158.674 10.436C158.917 10.856 159.127 11.4393 159.304 12.186L156.364 14.006C155.767 14.3793 155.193 14.6407 154.642 14.79C154.092 14.93 153.406 15 152.584 15H151.646C151.553 15 151.506 14.804 151.506 14.412C151.506 14.0013 151.553 13.796 151.646 13.796H152.626Z" fill="#191C1E"/>
<path fill-rule="evenodd" clip-rule="evenodd" d="M178.453 2.35651C179.057 2.92408 178.911 3.78313 178.635 4.41723L178.635 4.4184C178.222 5.36102 177.995 6.39431 178.004 7.48732L178.004 7.48998C178.021 11.5459 181.393 15.0084 185.524 15.1774L185.525 15.1774C186.135 15.2028 186.718 15.1605 187.284 15.0592C187.663 14.9902 188.035 14.9778 188.371 15.0562C188.714 15.1361 189.059 15.3233 189.274 15.6744C189.488 16.0239 189.497 16.4148 189.417 16.7535C189.338 17.087 189.164 17.4135 188.937 17.7209C186.962 20.4231 183.674 22.1339 180.005 21.9748L180.004 21.9748C174.797 21.7458 170.439 17.5811 170.079 12.4289C169.749 7.86208 172.46 3.88545 176.398 2.22456C177.031 1.95654 177.873 1.81093 178.453 2.35651ZM177.365 3.49126C177.278 3.50302 177.151 3.5348 176.983 3.60611L176.981 3.60668C173.596 5.03433 171.294 8.43675 171.575 12.3217L171.575 12.3234C171.881 16.6955 175.605 20.2796 180.07 20.4762C183.225 20.613 186.04 19.1433 187.727 16.8344L187.729 16.8312C187.831 16.6936 187.891 16.5838 187.925 16.5035C187.839 16.4992 187.717 16.5049 187.551 16.5351L187.549 16.5355C186.876 16.656 186.184 16.7061 185.463 16.6761C180.55 16.4752 176.525 12.374 176.504 7.49753C176.494 6.1869 176.767 4.94596 177.26 3.81768C177.322 3.67519 177.352 3.56714 177.365 3.49126ZM177.488 3.48881C177.488 3.48883 177.487 3.48872 177.486 3.48846L177.488 3.48881Z" fill="#5C5F61"/>
</svg>
