<svg width="24" height="33" viewBox="0 0 24 33" fill="none" xmlns="http://www.w3.org/2000/svg">
<path d="M12 0.41626C5.3832 0.41626 0 7.67564 0 16.5986V23.3029C0 24.96 1.0764 26.3079 2.4 26.3079H3.6C3.91826 26.3079 4.22348 26.1375 4.44853 25.834C4.67357 25.5305 4.8 25.1189 4.8 24.6897V16.3672C4.8 15.938 4.67357 15.5264 4.44853 15.2229C4.22348 14.9194 3.91826 14.7489 3.6 14.7489H2.5104C3.1776 8.48638 7.1736 3.65272 12 3.65272C16.8264 3.65272 20.8224 8.48638 21.4896 14.7489H20.4C20.0817 14.7489 19.7765 14.9194 19.5515 15.2229C19.3264 15.5264 19.2 15.938 19.2 16.3672V26.3079C19.2 28.0929 18.1236 29.5444 16.8 29.5444H14.4V27.9262H9.6V32.7809H16.8C19.4472 32.7809 21.6 29.8778 21.6 26.3079C22.9236 26.3079 24 24.96 24 23.3029V16.5986C24 7.67564 18.6168 0.41626 12 0.41626Z" fill="#F5F5F5"/>
</svg>
